<svg width="152" height="191" viewBox="0 0 152 191" fill="none" xmlns="http://www.w3.org/2000/svg">
<path d="M75.9738 182.347H87.6048V190.347H75.9738V182.347Z" fill="#3F3F3F"/>
<path d="M132.422 71.0584L96.4366 102.03L91.218 95.9661L127.203 64.9949L132.422 71.0584Z" fill="#3F3F3F"/>
<path fill-rule="evenodd" clip-rule="evenodd" d="M91.2402 175.398L81.9479 184.69L87.6047 190.347L98.3052 179.647L93.0256 174.367L91.2402 175.398Z" fill="#3F3F3F"/>
<path fill-rule="evenodd" clip-rule="evenodd" d="M133.377 151.086L91.6403 175.183L95.6175 182.071L137.16 158.087L137.254 157.802L133.377 151.086Z" fill="#3F3F3F"/>
<path fill-rule="evenodd" clip-rule="evenodd" d="M151.223 111.662L144.798 109.536L129.659 155.29L137.254 157.803L151.948 113.395L151.223 111.662Z" fill="#3F3F3F"/>
<path fill-rule="evenodd" clip-rule="evenodd" d="M131.275 84.6625L144.026 115.168L151.407 112.083L138.018 80.0517L132.048 82.5471L131.275 84.6625Z" fill="#3F3F3F"/>
<path fill-rule="evenodd" clip-rule="evenodd" d="M144.642 67.5385L138.368 65.2454L131.311 84.5557L138.825 87.3019L145.559 68.8752L144.642 67.5385Z" fill="#3F3F3F"/>
<path fill-rule="evenodd" clip-rule="evenodd" d="M139.948 0.0478516L104.311 21.9751L108.503 28.7887L142.862 7.64786L143.233 5.38708L139.948 0.0478516Z" fill="#3F3F3F"/>
<path fill-rule="evenodd" clip-rule="evenodd" d="M132.457 71.0311L143.205 5.55331L135.311 4.25745L124.385 70.8145L131.375 71.962L132.457 71.0311Z" fill="#3F3F3F"/>
<path fill-rule="evenodd" clip-rule="evenodd" d="M126.861 55.7503L133.402 65.2894L135.275 53.8749L128.734 44.3357L126.861 55.7503ZM124.539 52.3642L126.412 40.9496L110.716 18.0574L103.894 22.2544L124.539 52.3642ZM138.596 72.8656L135.723 68.6756L137.597 57.261L145.194 68.3415L138.596 72.8656Z" fill="#3F3F3F"/>
<path fill-rule="evenodd" clip-rule="evenodd" d="M105.509 113.565L108.648 116.613C113.64 121.459 120.497 135.606 111.932 155.348C111.656 155.983 111.168 156.503 110.505 156.795C109.894 157.065 109.285 157.077 108.811 157.021C107.899 156.913 106.969 156.488 106.165 156.028C104.496 155.074 102.563 153.493 100.822 151.762C99.0773 150.027 97.4004 148.017 96.3106 146.135C95.7696 145.201 95.3141 144.199 95.1126 143.212C94.9133 142.235 94.9132 140.994 95.6817 139.92C96.1736 139.233 96.8016 138.844 97.3295 138.593C97.6866 138.424 98.1219 138.267 98.4539 138.147C98.5501 138.113 98.6377 138.081 98.7122 138.054C99.4685 137.771 100.182 137.44 100.92 136.61C102.518 134.813 104.55 130.297 105.258 117.933L105.509 113.565ZM108.816 123.579C107.877 132.358 106.079 136.828 103.91 139.268C102.56 140.786 101.165 141.408 100.111 141.801C99.9174 141.873 99.7618 141.929 99.6308 141.976C99.3744 142.069 99.2128 142.127 99.0446 142.207C99.0294 142.214 99.0157 142.221 99.0033 142.227C99.0075 142.273 99.016 142.334 99.0318 142.412C99.1126 142.807 99.3409 143.386 99.7718 144.13C100.626 145.605 102.045 147.338 103.642 148.925C105.243 150.517 106.896 151.838 108.151 152.556C108.345 152.667 108.513 152.754 108.657 152.822C114.176 139.412 111.871 129.28 108.816 123.579ZM99.0028 142.106C99.003 142.106 99.0026 142.11 99.001 142.116C99.0018 142.109 99.0026 142.106 99.0028 142.106ZM98.9018 142.286C98.8998 142.288 98.8987 142.288 98.8986 142.288C98.8985 142.288 98.8995 142.288 98.9018 142.286Z" fill="#3F3F3F"/>
<path d="M75.9738 182.347H64.3427V190.347H75.9738V182.347Z" fill="#3F3F3F"/>
<path d="M19.5255 71.0584L55.5109 102.03L60.7295 95.9661L24.7441 64.9949L19.5255 71.0584Z" fill="#3F3F3F"/>
<path fill-rule="evenodd" clip-rule="evenodd" d="M60.7074 175.398L69.9996 184.69L64.3428 190.347L53.6423 179.647L58.9219 174.367L60.7074 175.398Z" fill="#3F3F3F"/>
<path fill-rule="evenodd" clip-rule="evenodd" d="M18.5709 151.086L60.3073 175.183L56.33 182.071L14.7873 158.087L14.6932 157.802L18.5709 151.086Z" fill="#3F3F3F"/>
<path fill-rule="evenodd" clip-rule="evenodd" d="M0.724138 111.662L7.14975 109.536L22.2882 155.29L14.6931 157.803L-5.72205e-06 113.395L0.724138 111.662Z" fill="#3F3F3F"/>
<path fill-rule="evenodd" clip-rule="evenodd" d="M20.6727 84.6625L7.922 115.168L0.54084 112.083L13.9292 80.0517L19.8994 82.5471L20.6727 84.6625Z" fill="#3F3F3F"/>
<path fill-rule="evenodd" clip-rule="evenodd" d="M7.30507 67.5385L13.5795 65.2454L20.6368 84.5557L13.1229 87.3019L6.38849 68.8752L7.30507 67.5385Z" fill="#3F3F3F"/>
<path fill-rule="evenodd" clip-rule="evenodd" d="M11.9992 0.0478516L47.6368 21.9751L43.4446 28.7887L9.08511 7.64786L8.71408 5.38708L11.9992 0.0478516Z" fill="#3F3F3F"/>
<path fill-rule="evenodd" clip-rule="evenodd" d="M19.4906 71.0311L8.74237 5.55331L16.6367 4.25745L27.5621 70.8145L20.5721 71.962L19.4906 71.0311Z" fill="#3F3F3F"/>
<path fill-rule="evenodd" clip-rule="evenodd" d="M25.0866 55.7503L18.5459 65.2894L16.6726 53.8749L23.2133 44.3357L25.0866 55.7503ZM27.4084 52.3642L25.5351 40.9496L41.2317 18.0574L48.0538 22.2544L27.4084 52.3642ZM13.3512 72.8656L16.2241 68.6756L14.3508 57.261L6.75319 68.3415L13.3512 72.8656Z" fill="#3F3F3F"/>
<path fill-rule="evenodd" clip-rule="evenodd" d="M46.4389 113.565L43.2994 116.613C38.3071 121.459 31.4506 135.606 40.0156 155.348C40.2911 155.983 40.7795 156.503 41.4427 156.795C42.0534 157.065 42.6629 157.077 43.1364 157.021C44.0488 156.913 44.9784 156.488 45.7822 156.028C47.4512 155.074 49.3844 153.493 51.1256 151.762C52.8702 150.027 54.5471 148.017 55.6369 146.135C56.1779 145.201 56.6334 144.199 56.8349 143.212C57.0342 142.235 57.0343 140.994 56.2658 139.92C55.774 139.233 55.1459 138.844 54.618 138.593C54.2609 138.424 53.8256 138.267 53.4936 138.147C53.3974 138.113 53.3098 138.081 53.2353 138.054C52.479 137.771 51.7652 137.44 51.0275 136.61C49.4298 134.813 47.3972 130.297 46.6891 117.933L46.4389 113.565ZM43.131 123.579C44.0707 132.358 45.8688 136.828 48.0379 139.268C49.3874 140.786 50.783 141.408 51.8363 141.801C52.0301 141.873 52.1857 141.929 52.3167 141.976C52.5731 142.069 52.7347 142.127 52.9029 142.207C52.9181 142.214 52.9318 142.221 52.9442 142.227C52.94 142.273 52.9315 142.334 52.9157 142.412C52.8349 142.807 52.6066 143.386 52.1757 144.13C51.3216 145.605 49.9021 147.338 48.3052 148.925C46.7049 150.517 45.0516 151.838 43.7964 152.556C43.6027 152.667 43.4342 152.754 43.2902 152.822C37.772 139.412 40.0766 129.28 43.131 123.579ZM52.9447 142.106C52.9445 142.106 52.9449 142.11 52.9465 142.116C52.9457 142.109 52.945 142.106 52.9447 142.106ZM53.0457 142.286C53.0477 142.288 53.0488 142.288 53.0489 142.288C53.049 142.288 53.048 142.288 53.0457 142.286Z" fill="#3F3F3F"/>
</svg>
